 <svg  version="1.0" xmlns="http://www.w3.org/2000/svg"  width="280.000000pt" height="280.000000pt" viewBox="0 0 280.000000 280.000000"  preserveAspectRatio="xMidYMid meet">  <g transform="translate(0.000000,280.000000) scale(0.100000,-0.100000)" fill="#ffffff" stroke="none"> <path d="M493 2260 c-107 -23 -191 -85 -241 -178 -24 -46 -34 -80 -43 -156 -20 -170 -5 -226 61 -226 47 0 57 24 63 145 5 120 20 171 65 218 50 53 99 72 188 72 72 0 86 -3 130 -30 39 -25 56 -44 82 -95 44 -89 52 -157 52 -482 0 -265 1 -279 20 -298 27 -27 56 -25 87 6 l25 25 -5 322 c-5 345 -11 385 -63 489 -60 119 -164 185 -301 193 -43 2 -97 0 -120 -5z m209 -40 c124 -38 204 -143 233 -306 15 -81 22 -615 9 -648 -6 -17 -49 -22 -58 -8 -3 5 -8 143 -11 306 -7 387 -22 459 -117 540 -127 109 -345 71 -417 -73 -20 -39 -39 -145 -40 -225 -1 -71 -36 -102 -62 -54 -19 35 -6 211 22 283 61 163 253 243 441 185z"/> <path d="M1396 2235 c-81 -33 -139 -85 -177 -159 -24 -46 -19 -79 16 -102 33 -21 78 -4 95 36 16 37 67 86 112 104 45 19 145 21 202 4 54 -16 126 -89 150 -153 18 -45 20 -82 23 -384 3 -222 7 -339 15 -348 16 -19 72 -16 91 5 15 17 17 56 17 354 0 309 -2 341 -20 401 -37 119 -135 220 -245 252 -83 24 -208 20 -279 -10z m274 -17 c105 -33 197 -134 229 -253 11 -45 18 -686 7 -704 -10 -15 -46 -14 -51 2 -2 6 -8 161 -13 342 -11 379 -14 398 -92 475 -123 124 -345 102 -436 -41 -17 -28 -31 -39 -48 -39 -82 0 8 145 124 202 75 37 190 43 280 16z"/> <path d="M2287 2230 c-45 -14 -95 -58 -120 -103 -20 -39 -22 -57 -25 -255 -3 -191 -2 -216 14 -233 22 -24 66 -24 88 0 14 16 17 46 19 207 2 220 10 248 74 260 46 9 81 -4 107 -39 21 -28 21 -38 21 -425 0 -218 -2 -419 -4 -446 -4 -42 -1 -52 18 -68 29 -23 53 -23 81 0 17 14 24 34 30 92 12 104 12 766 0 829 -21 111 -100 180 -213 187 -34 2 -75 -1 -90 -6z m174 -43 c29 -16 54 -40 74 -72 l30 -48 0 -442 c0 -473 -1 -480 -49 -473 -21 3 -21 4 -17 414 4 455 -1 500 -55 543 -37 29 -121 29 -157 1 -38 -30 -47 -77 -47 -241 0 -164 -5 -205 -27 -214 -38 -14 -43 10 -43 214 0 213 8 250 61 297 55 49 159 58 230 21z"/> <path d="M553 1938 c-12 -6 -25 -18 -28 -27 -4 -9 -6 -180 -5 -380 1 -338 2 -368 21 -424 35 -103 87 -163 177 -205 52 -25 68 -27 182 -27 114 0 130 2 180 26 98 46 165 131 194 244 12 45 16 113 16 280 0 249 -4 265 -64 265 -63 0 -66 -10 -66 -263 0 -204 -2 -232 -20 -281 -38 -100 -117 -149 -240 -149 -121 0 -188 39 -232 137 -23 50 -23 59 -26 418 -2 267 -7 369 -15 376 -21 17 -51 21 -74 10z m52 -38 c3 -5 8 -168 11 -362 5 -316 8 -358 25 -404 25 -67 50 -98 102 -128 82 -49 212 -49 305 -2 53 27 70 44 100 101 36 68 42 114 42 322 0 111 3 208 6 217 3 9 14 16 24 16 39 0 42 -19 38 -272 -3 -202 -7 -249 -21 -280 -33 -73 -82 -129 -142 -166 l-60 -37 -135 0 c-120 0 -140 2 -175 22 -58 31 -120 100 -150 166 l-27 57 1 371 c1 204 3 375 7 380 7 12 41 12 49 -1z"/> <path d="M1527 1943 c-42 -11 -47 -46 -47 -357 0 -162 5 -330 11 -373 28 -203 162 -333 359 -350 79 -7 175 15 239 55 93 57 162 177 175 306 4 41 1 52 -19 72 -47 47 -99 22 -109 -53 -24 -176 -126 -265 -288 -250 -109 10 -184 74 -219 189 -18 56 -20 92 -19 396 2 354 2 353 -45 365 -11 2 -28 2 -38 0z m54 -218 c4 -99 7 -254 8 -345 1 -173 11 -231 51 -295 89 -144 342 -160 452 -30 27 31 55 96 63 145 10 62 22 82 48 78 20 -3 22 -8 21 -73 0 -58 -6 -81 -31 -130 -67 -130 -185 -193 -343 -182 -101 7 -166 35 -228 101 -55 58 -86 120 -102 203 -14 76 -13 668 1 694 6 13 18 19 32 17 21 -3 22 -8 28 -183z"/> <path d="M226 1407 c-17 -12 -18 -27 -14 -178 7 -210 31 -291 133 -435 85 -119 157 -162 198 -116 30 33 21 67 -34 124 -58 61 -107 139 -138 224 -21 54 -40 209 -41 326 0 20 -7 44 -16 52 -19 19 -64 21 -88 3z m73 -39 c4 -13 11 -79 14 -148 9 -193 55 -306 176 -440 44 -48 49 -61 26 -80 -20 -17 -47 -5 -87 38 -90 97 -153 216 -179 337 -13 59 -16 286 -4 305 11 18 45 10 54 -12z"/> <path d="M1308 826 c-103 -88 -210 -138 -343 -161 -53 -9 -75 -30 -75 -71 0 -25 7 -38 25 -50 23 -15 31 -15 121 5 115 26 229 76 305 136 l57 45 68 -46 c152 -102 260 -143 396 -151 184 -11 357 51 487 175 67 63 77 96 41 132 -34 34 -64 25 -135 -39 -105 -96 -222 -141 -362 -141 -119 0 -251 55 -408 169 -38 28 -79 51 -91 51 -13 0 -51 -24 -86 -54z m163 -22 c221 -157 377 -200 556 -156 106 27 164 57 241 126 34 31 69 56 77 56 14 0 28 -16 31 -36 3 -21 -54 -81 -123 -128 -93 -63 -193 -97 -315 -105 -155 -10 -271 26 -447 139 -43 28 -85 50 -94 50 -8 0 -37 -17 -64 -37 -64 -49 -184 -108 -259 -127 -70 -18 -140 -21 -149 -6 -14 22 7 50 43 58 20 5 60 14 87 21 74 17 181 73 259 136 38 30 74 55 80 55 7 0 41 -21 77 -46z"/> </g> </svg> 