 <svg version="1.0" xmlns="http://www.w3.org/2000/svg"  width="280.000000pt" height="280.000000pt" viewBox="0 0 280.000000 280.000000"  preserveAspectRatio="xMidYMid meet">  <g transform="translate(0.000000,280.000000) scale(0.100000,-0.100000)" fill="#000000" stroke="none"> <path d="M0 1400 l0 -1400 1400 0 1400 0 0 1400 0 1400 -1400 0 -1400 0 0 -1400z m754 830 c100 -47 163 -131 201 -266 14 -48 18 -121 22 -381 l5 -322 -25 -25 c-31 -31 -60 -33 -87 -6 -19 19 -20 33 -20 298 0 325 -8 393 -52 482 -26 51 -43 70 -82 95 -44 27 -58 30 -130 30 -89 0 -138 -19 -188 -72 -45 -47 -60 -98 -65 -218 -6 -121 -16 -145 -63 -145 -66 0 -81 56 -61 226 18 153 84 254 199 306 105 48 244 47 346 -2z m921 15 c110 -32 208 -133 245 -252 18 -60 20 -92 20 -401 0 -298 -2 -337 -17 -354 -19 -21 -75 -24 -91 -5 -8 9 -12 126 -15 348 -3 302 -5 339 -23 384 -24 64 -96 137 -150 153 -57 17 -157 15 -202 -4 -45 -18 -96 -67 -112 -104 -17 -40 -62 -57 -95 -36 -35 23 -40 56 -16 102 38 74 96 126 177 159 71 30 196 34 279 10z m806 -36 c54 -30 96 -92 109 -160 12 -63 12 -725 0 -829 -6 -58 -13 -78 -30 -92 -28 -23 -52 -23 -81 0 -19 16 -22 26 -18 68 2 27 4 228 4 446 0 387 0 397 -21 425 -26 35 -61 48 -107 39 -64 -12 -72 -40 -74 -260 -2 -161 -5 -191 -19 -207 -22 -24 -66 -24 -88 0 -16 17 -17 42 -14 233 3 198 5 216 25 255 25 45 75 89 120 103 48 16 147 5 194 -21z m-1854 -281 c8 -7 13 -109 15 -376 3 -359 3 -368 26 -418 44 -98 111 -137 232 -137 123 0 202 49 240 149 18 49 20 77 20 281 0 253 3 263 66 263 60 0 64 -16 64 -265 0 -167 -4 -235 -16 -280 -29 -113 -96 -198 -194 -244 -50 -24 -66 -26 -180 -26 -114 0 -130 2 -182 27 -90 42 -142 102 -177 205 -19 56 -20 86 -21 424 -1 200 1 371 5 380 13 34 69 44 102 17z m971 -3 c11 -10 13 -81 12 -347 -1 -304 1 -340 19 -396 35 -115 110 -179 219 -189 162 -15 264 74 288 250 10 75 62 100 109 53 20 -20 23 -31 19 -72 -23 -229 -196 -379 -414 -361 -197 17 -331 147 -359 350 -6 43 -11 211 -11 373 0 311 5 346 47 357 23 6 55 -2 71 -18z m-1284 -521 c9 -8 16 -32 16 -52 1 -117 20 -272 41 -326 31 -85 80 -163 138 -224 55 -57 64 -91 34 -124 -41 -46 -113 -3 -198 116 -102 144 -126 225 -133 435 -4 151 -3 166 14 178 24 18 69 16 88 -3z m1171 -575 c157 -114 289 -169 408 -169 140 0 257 45 362 141 71 64 101 73 135 39 36 -36 26 -69 -41 -132 -130 -124 -303 -186 -487 -175 -136 8 -244 49 -396 151 l-68 46 -57 -45 c-76 -60 -190 -110 -305 -136 -90 -20 -98 -20 -121 -5 -18 12 -25 25 -25 50 0 41 22 62 75 71 133 23 240 73 343 161 35 30 73 54 86 54 12 0 53 -23 91 -51z"/> <path d="M451 2218 c-86 -29 -159 -99 -190 -183 -28 -72 -41 -248 -22 -283 26 -48 61 -17 62 54 1 80 20 186 40 225 72 144 290 182 417 73 95 -81 110 -153 117 -540 3 -163 8 -301 11 -306 9 -14 52 -9 58 8 13 33 6 567 -9 648 -29 163 -109 268 -233 306 -83 26 -170 25 -251 -2z"/> <path d="M1480 2231 c-88 -13 -172 -69 -226 -151 -31 -46 -26 -80 12 -80 17 0 31 11 48 39 91 143 313 165 436 41 78 -77 81 -96 92 -475 5 -181 11 -336 13 -342 5 -16 41 -17 51 -2 11 18 4 659 -7 704 -32 119 -124 220 -229 253 -49 15 -137 21 -190 13z"/> <path d="M2285 2198 c-42 -15 -74 -46 -96 -93 -16 -35 -19 -67 -19 -236 0 -204 5 -228 43 -214 22 9 27 50 27 214 0 164 9 211 47 241 36 28 120 28 157 -1 54 -43 59 -88 55 -543 -4 -410 -4 -411 17 -414 48 -7 49 0 49 473 l0 442 -30 48 c-51 82 -154 117 -250 83z"/> <path d="M556 1901 c-4 -5 -6 -176 -7 -380 l-1 -371 27 -57 c30 -66 92 -135 150 -166 35 -20 55 -22 175 -22 l135 0 60 37 c60 37 109 93 142 166 14 31 18 78 21 280 4 253 1 272 -38 272 -10 0 -21 -7 -24 -16 -3 -9 -6 -106 -6 -217 0 -208 -6 -254 -42 -322 -30 -57 -47 -74 -100 -101 -93 -47 -223 -47 -305 2 -52 30 -77 61 -102 128 -17 46 -20 88 -25 404 -3 194 -8 357 -11 362 -8 13 -42 13 -49 1z"/> <path d="M1521 1891 c-14 -26 -15 -618 -1 -694 16 -83 47 -145 102 -203 62 -66 127 -94 228 -101 158 -11 276 52 343 182 25 49 31 72 31 130 1 65 -1 70 -21 73 -26 4 -38 -16 -48 -78 -8 -49 -36 -114 -63 -145 -110 -130 -363 -114 -452 30 -40 64 -50 122 -51 295 -1 91 -4 246 -8 345 -6 175 -7 180 -28 183 -14 2 -26 -4 -32 -17z"/> <path d="M245 1380 c-12 -19 -9 -246 4 -305 26 -121 89 -240 179 -337 40 -43 67 -55 87 -38 23 19 18 32 -26 80 -121 134 -167 247 -176 440 -3 69 -10 135 -14 148 -9 22 -43 30 -54 12z"/> <path d="M1314 795 c-78 -63 -185 -119 -259 -136 -27 -7 -67 -16 -87 -21 -36 -8 -57 -36 -43 -58 9 -15 79 -12 149 6 75 19 195 78 259 127 27 20 56 37 64 37 9 0 51 -22 94 -50 176 -113 292 -149 447 -139 122 8 222 42 315 105 69 47 126 107 123 128 -3 20 -17 36 -31 36 -8 0 -43 -25 -77 -56 -77 -69 -135 -99 -241 -126 -179 -44 -335 -1 -556 156 -36 25 -70 46 -77 46 -6 0 -42 -25 -80 -55z"/> </g> </svg> 